<svg viewBox="0 0 487.53 487.59" xmlns="http://www.w3.org/2000/svg"><g transform="translate(-12.01 -6.99)"><path d="m255.62 494.57c-135.62-.03-243.81-108.57-243.62-244.69.2-134.36 108.73-243.63 245.26-242.88a243.79 243.79 0 0 1 -1.64 487.58zm195.86-244c-.4-108.22-87.27-195.28-195.27-195.5a195.65 195.65 0 1 0 -.51 391.29c108.43.07 195.47-87.36 195.78-195.75z"/><path d="m451.48 250.61c-.31 108.39-87.35 195.82-195.78 195.79a195.65 195.65 0 1 1 .51-391.29c108 .22 194.87 87.28 195.27 195.5zm-299.18-24.83c1 .68 1.63 1.18 2.31 1.63 10.08 6.62 20.24 13.13 30.2 19.93 2.37 1.63 3.83 1.44 6.08-.06 19-12.7 38.22-25.15 57.17-38 4.26-2.88 7.75-3.84 11.63 0a5.53 5.53 0 0 0 .84.55q32.85 21.56 65.71 43.13c1.35.89 2.65 1.86 4.32 3-1.24.91-2.06 1.58-2.94 2.15-8.71 5.69-17.44 11.34-26.13 17.05-13.7 9-27.57 17.74-40.95 27.19-5.11 3.6-8.55 3.09-13.41-.23-18.83-12.84-38-25.2-56.95-37.83-1.8-1.2-3-1.23-4.78 0-6 4.17-12.15 8.16-18.26 12.19-4.85 3.21-9.72 6.38-14.78 9.69 1.16.85 2.13 1.62 3.16 2.3q9.6 6.3 19.21 12.57 19.43 12.69 38.86 25.4t38.7 25.61a2.75 2.75 0 0 0 3.56 0q19.22-12.8 38.5-25.47 22.65-14.84 45.26-29.68 12.42-8.14 24.88-16.22c.7-.45 1.92-1 2.44-.69 3.19 1.88 6.26 4 9.67 6.21-.91.71-1.45 1.19-2 1.58-5.82 3.88-11.63 7.76-17.48 11.59q-28.44 18.63-56.86 37.13-22.26 14.58-44.35 29.3a2.87 2.87 0 0 1 -3.74 0q-20.4-13.5-40.87-26.87-33.67-22.13-67.3-44.32c-1.63-1.08-2.73-1.16-4.39-.05-9.8 6.58-19.7 13-29.56 19.52-1.2.79-2.38 1.6-3.78 2.55 20.29 13.32 40.26 26.4 60.21 39.51q21.79 14.33 43.57 28.68 21.15 13.92 42.32 27.82a2.55 2.55 0 0 0 3.31 0c10.46-7 21-13.82 31.47-20.72q33.68-22.14 67.33-44.3 27.31-17.94 54.7-35.76a5.37 5.37 0 0 0 2.83-5.21c-.15-13.83-.1-27.66 0-41.49a3.81 3.81 0 0 0 -2.09-3.83c-2.62-1.52-5.11-3.28-8.23-5.31 2.93-1.89 5.27-3.55 7.76-5a4.52 4.52 0 0 0 2.59-4.55q-.18-20.88 0-41.75a4.4 4.4 0 0 0 -2.33-4.23q-18.45-11.91-36.81-24c-19.1-12.57-38.14-25.26-57.25-37.83-20-13.17-40.08-26.24-60.08-39.41a2.35 2.35 0 0 0 -3.08.06q-25.5 16.86-51.05 33.65-20.53 13.5-41.13 26.94l-46.32 30.39c-2.51 1.65-5 3.4-7.56 5.2 11 7.25 21.67 14.18 32.2 21.32 2.36 1.61 4 1.6 6.35 0 20.79-13.81 41.68-27.48 62.53-41.19q22.11-14.53 44.17-29.12c1.81-1.2 3.12-1.13 4.9.08 6.05 4.11 12.23 8 18.35 12.05q30.75 20.2 61.51 40.43 16.26 10.69 32.54 21.37c2.48 1.63 4.9 3.34 7.77 5.3-3 1.94-5.64 3.55-8.15 5.4a3.29 3.29 0 0 1 -4.41.12c-17.42-11.51-34.91-22.91-52.36-34.38q-28-18.25-55.83-36.7c-1.22-.8-2.1-1.22-3.52-.27-8.42 5.65-16.91 11.2-25.38 16.78l-48 31.54c-8.82 5.78-17.66 11.57-26.8 17.56zm-56.25-23.09c0 14.15.18 27.73-.11 41.3-.09 4 .85 6.56 4.5 8.28 1.94.91 3.59 2.41 5.71 3.87-3.06 2-5.56 3.8-8.19 5.37a3.65 3.65 0 0 0 -1.96 3.64c.07 14 0 28 0 42 0 .62.08 1.24.14 2.21l81.09-53.27c-27.1-17.85-53.93-35.49-81.18-53.4z" fill="#fff"/><path d="m152.3 225.78c9.14-6 18-11.76 26.8-17.56l48-31.54c8.47-5.58 17-11.13 25.38-16.78 1.42-1 2.3-.53 3.52.27q27.89 18.45 55.82 36.82c17.45 11.47 34.94 22.87 52.36 34.38a3.29 3.29 0 0 0 4.41-.12c2.51-1.85 5.19-3.46 8.15-5.4-2.87-2-5.29-3.67-7.77-5.3q-16.26-10.71-32.54-21.37-30.76-20.2-61.51-40.43c-6.12-4-12.3-7.94-18.35-12.05-1.78-1.21-3.09-1.28-4.9-.08q-22 14.64-44.17 29.12c-20.85 13.71-41.74 27.38-62.53 41.19-2.37 1.58-4 1.59-6.35 0-10.53-7.14-21.21-14.07-32.2-21.32 2.6-1.8 5.05-3.55 7.56-5.2l46.28-30.41q20.57-13.47 41.13-26.94 25.55-16.78 51.05-33.65a2.35 2.35 0 0 1 3.08-.06c20 13.17 40.07 26.24 60.08 39.41 19.11 12.57 38.15 25.26 57.25 37.83q18.34 12.09 36.81 24a4.4 4.4 0 0 1 2.33 4.23q-.15 20.86 0 41.75a4.52 4.52 0 0 1 -2.59 4.55c-2.49 1.41-4.83 3.07-7.76 5 3.12 2 5.61 3.79 8.23 5.31a3.81 3.81 0 0 1 2.09 3.83c-.06 13.83-.11 27.66 0 41.49a5.37 5.37 0 0 1 -2.83 5.21q-27.4 17.79-54.7 35.76-33.69 22.13-67.33 44.3c-10.49 6.9-21 13.76-31.47 20.72a2.55 2.55 0 0 1 -3.31 0q-21.13-14-42.32-27.82-21.8-14.32-43.57-28.68c-19.9-13.24-39.87-26.24-60.16-39.61 1.4-.95 2.58-1.76 3.78-2.55 9.86-6.49 19.76-12.94 29.56-19.52 1.66-1.11 2.76-1 4.39.05q33.6 22.23 67.3 44.33 20.43 13.43 40.87 26.87a2.87 2.87 0 0 0 3.74 0q22.13-14.73 44.35-29.3 28.38-18.6 56.82-37.13c5.85-3.83 11.66-7.71 17.48-11.59.59-.39 1.13-.87 2-1.58-3.41-2.23-6.48-4.33-9.67-6.21-.52-.3-1.74.24-2.44.69q-12.45 8.05-24.84 16.21-22.61 14.85-45.26 29.73-19.28 12.69-38.5 25.47a2.75 2.75 0 0 1 -3.56 0q-19.32-12.86-38.7-25.61t-38.86-25.4q-9.61-6.28-19.21-12.57c-1-.68-2-1.45-3.16-2.3 5.06-3.31 9.93-6.48 14.78-9.69 6.11-4 12.25-8 18.26-12.19 1.78-1.24 3-1.21 4.78 0 19 12.63 38.12 25 56.95 37.83 4.86 3.32 8.3 3.83 13.41.23 13.38-9.45 27.25-18.2 40.95-27.19 8.69-5.71 17.42-11.36 26.13-17.05.88-.57 1.7-1.24 2.94-2.15-1.67-1.18-3-2.15-4.32-3q-32.85-21.58-65.71-43.13a5.53 5.53 0 0 1 -.84-.55c-3.88-3.86-7.37-2.9-11.63 0-18.95 12.82-38.14 25.27-57.17 38-2.25 1.5-3.71 1.69-6.08.06-10-6.8-20.12-13.31-30.2-19.93-.68-.46-1.34-1-2.31-1.68z"/><path d="m96.05 202.69c27.25 17.91 54.08 35.55 81.23 53.38l-81.09 53.27c-.06-1-.14-1.59-.14-2.21 0-14 0-28 0-42a3.65 3.65 0 0 1 1.95-3.62c2.63-1.57 5.13-3.35 8.19-5.37-2.12-1.46-3.77-3-5.71-3.87-3.65-1.72-4.59-4.3-4.5-8.28.25-13.57.07-27.15.07-41.3z"/></g></svg>